# xmcd
#
# Track frame offsets: 
#        150
#        19950
#        39317
#        59760
#
# Disc length: 939 seconds
#
# Revision: 0
# Processed by: cddbd v1.5.1PL0 Copyright (c) Steve Scherf et al.
# Submitted via: ExactAudioCopy v0.95a4
#
DISCID=3103a904
DTITLE=tommy emmanuel - stevie's blues
DYEAR=1991
DGENRE=blues
TTITLE0=stevie's blues
TTITLE1=initiation
TTITLE2=when you come home
TTITLE3=stevie's blues (acoustic)
EXTD=
EXTT0=
EXTT1=
EXTT2=
EXTT3=
PLAYORDER=
